# AST/ASF file generated using VICON BodyLanguage
# -----------------------------------------------
:version 1.10
:name VICON
:units
  mass 1.0
  length 0.45
  angle deg
:documentation
   .ast/.asf automatically generated from VICON data using
   VICON BodyBuilder and BodyLanguage model FoxedUp or BRILLIANT.MOD
:root
   order TX TY TZ RX RY RZ
   axis XYZ
   position 0 0 0  
   orientation 0 0 0 
:bonedata
  begin
     id 1 
     name lhipjoint
     direction 0.577973 -0.728611 0.367523 
     length 2.48544 
     axis 0 0 0  XYZ
  end
  begin
     id 2 
     name lfemur
     direction 0.34202 -0.939693 0  
     length 7.1921  
     axis 0 0 20  XYZ
    dof rx ry rz
    limits (-160.0 20.0)
           (-70.0 70.0)
           (-60.0 70.0)
  end
  begin
     id 3 
     name ltibia
     direction 0.34202 -0.939693 0   
     length 7.71059   
     axis 0 0 20   XYZ
    dof rx
    limits (-10.0 170.0)
  end
  begin
     id 4 
     name lfoot
     direction 0.089538 -0.246004 0.965124   
     length 2.19909   
     axis -90 7.62852e-016 20   XYZ
    dof rx rz
    limits (-45.0 90.0)
           (-70.0 20.0)
  end
  begin
     id 5 
     name ltoes
     direction 1.53544e-011 -4.21829e-011 1   
     length 1.10116   
     axis -90 7.62852e-016 20   XYZ
    dof rx
    limits (-90.0 20.0)
  end
  begin
     id 6 
     name rhipjoint
     direction -0.554414 -0.743062 0.374812   
     length 2.4371  
     axis 0 0 0  XYZ 
  end
  begin
     id 7 
     name rfemur
     direction -0.34202 -0.939693 0   
     length 7.47254   
     axis 0 0 -20   XYZ
    dof rx ry rz
    limits (-160.0 20.0)
           (-70.0 70.0)
           (-70.0 60.0)
  end
  begin
     id 8 
     name rtibia
     direction -0.34202 -0.939693 0   
     length 7.65855   
     axis 0 0 -20   XYZ
    dof rx
    limits (-10.0 170.0)
 end
 begin
     id 9 
     name rfoot
     direction -0.133779 -0.367555 0.92033   
     length 2.43006  
     axis -90 -7.62852e-016 -20   XYZ
    dof rx rz
    limits (-45.0 90.0)
           (-20.0 70.0)
  end
  begin
     id 10 
     name rtoes
     direction -1.53563e-011 -4.21889e-011 1   
     length 1.19625   
     axis -90 -7.62852e-016 -20   XYZ
    dof rx
    limits (-90.0 20.0)
  end
  begin
     id 11 
     name lowerback
     direction 0.0249066 0.998043 -0.0573585   
     length 2.08485   
     axis 0 0 0   XYZ
    dof rx ry rz
    limits (-20.0 45.0)
           (-30.0 30.0)
           (-30.0 30.0)
  end
  begin
     id 12 
     name upperback
     direction 0.0237884 0.999673 0.00943178   
     length 2.08515   
     axis 0 0 0   XYZ
    dof rx ry rz
    limits (-20.0 45.0)
           (-30.0 30.0)
           (-30.0 30.0)
  end
  begin
     id 13 
     name thorax
     direction 0.0106671 0.999301 0.0358174   
     length 2.09037   
     axis 0 0 0   XYZ
    dof rx ry rz
    limits (-20.0 45.0)
           (-30.0 30.0)
           (-30.0 30.0)
  end
  begin
     id 14 
     name lowerneck
     direction -0.0580016 0.987052 0.149546   
     length 1.84454   
     axis 0 0 0   XYZ
    dof rx ry rz
    limits (-20.0 45.0)
           (-30.0 30.0)
           (-30.0 30.0)
  end
  begin
     id 15 
     name upperneck
     direction 0.079456 0.981963 -0.171567   
     length 1.88141   
     axis 0 0 0   XYZ
    dof rx ry rz
    limits (-20.0 45.0)
           (-30.0 30.0)
           (-30.0 30.0)
  end
  begin
     id 16
     name head
     direction 0.0262167 0.9967 -0.0768276  
     length 1.89541  
     axis 0 0 0   XYZ
    dof rx ry rz
    limits (-20.0 45.0)
           (-30.0 30.0)
           (-30.0 30.0)
  end
  begin
     id 17 
     name lclavicle
     direction 0.946135 0.322134 -0.0325326  
     length 3.949  
     axis 0 0 0   XYZ
    dof ry rz
    limits (-20.0 10.0)
           (0.0 20.0)
  end
  begin
     id 18 
     name lhumerus
     direction 1 -4.48964e-011 1.94005e-028   
     length 5.10995   
     axis 180 -30 -90   XYZ
    dof rx ry rz
    limits (-60.0 90.0)
           (-90.0 90.0)
           (-90.0 90.0)
  end
  begin
     id 19
     name lradius
     direction 1 -4.48976e-011 2.87852e-027   
     length 3.21207   
     axis 180 -30 -90   XYZ
    dof rx
    limits (-10.0 170.0)
  end
  begin
     id 20
     name lwrist
     direction 1 -4.48963e-011 1.9975e-027   
     length 1.60604   
     axis 2.96054e-016 90 90   XYZ
    dof ry
    limits (-180.0 0.0)
 end
  begin
     id 21 
     name lhand
     direction 1 -4.48919e-011 4.00227e-027   
     length 0.63349   
     axis -2.5488e-015 90 90   XYZ
    dof rx rz
    limits (-90.0 90.0)
           (-45.0 45.0)
  end
  begin
     id 22 
     name lfingers
     direction 1 -4.49037e-011 7.9652e-027   
     length 0.510736   
     axis -5.0975e-015 90 90   XYZ
    dof rx
    limits (0.0 90.0)
  end
  begin
     id 23
     name lthumb
     direction 0.707107 -6.34922e-011 0.707107   
     length 0.733318   
     axis -90 45 -4.48553e-014   XYZ
    dof rx rz
    limits (-45.0 45.0)
           (-45.0 45.0)
  end
  begin
     id 24 
     name rclavicle
     direction -0.940085 0.328911 -0.0897654   
     length 3.93848  
     axis 0 0 0   XYZ 
    dof ry rz
    limits (-10.0 20.0)
           (-20.0 0.0)
  end
  begin
     id 25 
     name rhumerus
     direction -1 -4.48958e-011 3.02044e-027  
     length 5.25109   
     axis 180 30 90   XYZ
    dof rx ry rz
    limits (-90.0 60.0)
           (-90.0 90.0)
           (-90.0 90.0)
  end
  begin
     id 26 
     name rradius
     direction -1 -4.4897e-011 9.78352e-028   
     length 3.28364   
     axis 180 30 90   XYZ
    dof rx
    limits (-10.0 170.0)
  end
  begin
     id 27 
     name rwrist
     direction -1 -4.48943e-011 1.99918e-027   
     length 1.64182   
     axis 2.96054e-016 -90 -90   XYZ
    dof ry
    limits (-180.0 0.0)
  end
  begin
     id 28
     name rhand
     direction -1 -4.49024e-011 3.98478e-027   
     length 0.599745   
     axis -2.5488e-015 -90 -90   XYZ
    dof rx rz
    limits (-90.0 90.0)
           (-45.0 45.0)
  end
  begin
     id 29
     name rfingers
     direction -1 -4.48914e-011 8.00621e-027   
     length 0.48353   
     axis -5.0975e-015 -90 -90   XYZ
    dof rx
    limits (0.0 90.0)
  end
  begin
     id 30
     name rthumb
     direction -0.707107 -6.34992e-011 0.707107   
     length 0.694255   
     axis -90 -45 4.48553e-014   XYZ
    dof rx rz
    limits (-45.0 45.0)
           (-45.0 45.0)
  end
:hierarchy
  begin
    root lhipjoint rhipjoint lowerback
    lhipjoint lfemur
    lfemur ltibia
    ltibia lfoot
    lfoot ltoes
    rhipjoint rfemur
    rfemur rtibia
    rtibia rfoot
    rfoot rtoes
    lowerback upperback
    upperback thorax
    thorax lowerneck lclavicle rclavicle
    lowerneck upperneck
    upperneck head
    lclavicle lhumerus
    lhumerus lradius
    lradius lwrist
    lwrist lhand lthumb
    lhand lfingers
    rclavicle rhumerus
    rhumerus rradius
    rradius rwrist
    rwrist rhand rthumb
    rhand rfingers
  end

#!OML:ASF E:\CV Data\Top Level 1\Subject 1\Session 1\player.ASF
:FULLY-SPECIFIED
:DEGREES
777
root 6.06029 17.139 -9.24564 162.811 -80.577 -163.015
lowerback 5.35678 2.82576 2.00698
upperback -0.30257 3.91461 0.86441
thorax -3.23747 1.91626 -0.545193
lowerneck -14.631 14.9931 -2.7138
upperneck 20.0607 20.3218 4.32137
head 7.83402 9.82597 3.90927
rclavicle -2.10089e-014 -5.20567e-015
rhumerus 136.843 142.889 74.4298
rradius 95.8956
rwrist -6.58146
rhand -30.5698 19.8424
rfingers 7.12502
rthumb -3.8677 -10.1023
lclavicle -2.10089e-014 -5.20567e-015
lhumerus -43.7137 -37.9432 113.046
lradius 93.0542
lwrist 29.5098
lhand -24.4139 15.612
lfingers 7.12502
lthumb 2.07764 45.5816
rfemur -16.885 13.5923 26.387
rtibia 41.7293
rfoot -22.2467 -0.376065
rtoes 13.9098
lfemur -14.2348 5.33667 -14.7649
ltibia 37.8072
lfoot -18.1858 2.91275
ltoes -0.0189905
778
root 6.08434 17.1366 -9.26817 162.227 -80.6592 -162.418
lowerback 5.51728 2.82116 2.00827
upperback -0.266358 3.91204 0.87749
thorax -3.29102 1.91418 -0.540052
lowerneck -14.661 14.9621 -2.74198
upperneck 19.9889 20.2862 4.31222
head 7.81469 9.80915 3.90476
rclavicle -2.69419e-014 2.54382e-015
rhumerus 137.043 142.832 74.4919
rradius 95.8682
rwrist -5.86634
rhand -30.7268 19.8837
rfingers 7.12502
rthumb -4.01929 -10.0581
lclavicle -2.69419e-014 2.54382e-015
lhumerus -43.5681 -37.9678 112.96
lradius 93.114
lwrist 29.5919
lhand -24.6639 15.7782
lfingers 7.12502
lthumb 1.83616 45.7501
rfemur -16.982 13.5855 26.5489
rtibia 41.745
rfoot -22.1456 -0.490982
rtoes 13.9756
lfemur -14.4529 5.42034 -14.5902
ltibia 37.9889
lfoot -18.1347 2.73112
ltoes -0.102807
779
root 6.11009 17.1345 -9.2915 161.552 -80.7506 -161.716
lowerback 5.68557 2.81773 2.02317
upperback -0.233029 3.91207 0.887281
thorax -3.35072 1.91301 -0.54655
lowerneck -14.6833 14.9293 -2.77562
upperneck 19.9032 20.2476 4.30736
head 7.78848 9.79178 3.90023
rclavicle -9.4481e-015 4.88886e-015
rhumerus 137.245 142.772 74.5442
rradius 95.8196
rwrist -5.07791
rhand -30.9701 19.9037
rfingers 7.12502
rthumb -4.25429 -10.0336
lclavicle -9.4481e-015 4.88886e-015
lhumerus -43.4273 -38.0125 112.869
lradius 93.1803
lwrist 29.6891
lhand -24.9374 15.9479
lfingers 7.12502
lthumb 1.57203 45.9219
rfemur -17.0981 13.5692 26.7195
rtibia 41.753
rfoot -22.0316 -0.59889
rtoes 14.0415
lfemur -14.7066 5.4846 -14.4032
ltibia 38.189
lfoot -18.0747 2.55815
ltoes -0.168342
780
root 6.13767 17.1326 -9.3151 160.737 -80.8559 -160.86
lowerback 5.86105 2.81414 2.06517
upperback -0.199955 3.91382 0.893597
thorax -3.41262 1.91209 -0.572186
lowerneck -14.7019 14.8913 -2.80529
upperneck 19.8032 20.2013 4.29913
head 7.75804 9.77125 3.89233
rclavicle 4.51637e-014 5.73991e-015
rhumerus 137.453 142.713 74.5901
rradius 95.7586
rwrist -4.30542
rhand -31.2795 19.9211
rfingers 7.12502
rthumb -4.55304 -10.01
lclavicle 4.51637e-014 5.73991e-015
lhumerus -43.2896 -38.0756 112.785
lradius 93.2535
lwrist 29.8204
lhand -25.1874 16.1551
lfingers 7.12502
lthumb 1.33058 46.1307
rfemur -17.2333 13.523 26.9007
rtibia 41.7521
rfoot -21.9059 -0.686411
rtoes 14.1102
lfemur -14.9995 5.52512 -14.2005
ltibia 38.4096
lfoot -18.0048 2.3971
ltoes -0.220127
781
root 6.16734 17.1308 -9.33931 159.797 -80.9742 -159.858
lowerback 6.03803 2.8097 2.12147
upperback -0.169537 3.91562 0.899097
thorax -3.47707 1.91084 -0.606769
lowerneck -14.7189 14.8519 -2.82534
upperneck 19.6934 20.1521 4.28274
head 7.72615 9.74955 3.87994
rclavicle -9.10294e-014 -6.95746e-015
rhumerus 137.665 142.649 74.6292
rradius 95.6995
rwrist -3.63238
rhand -31.6046 19.951
rfingers 7.12502
rthumb -4.86695 -9.97315
lclavicle -9.10294e-014 -6.95746e-015
lhumerus -43.1479 -38.1377 112.709
lradius 93.3308
lwrist 29.9887
lhand -25.4002 16.4069
lfingers 7.12502
lthumb 1.12507 46.3837
rfemur -17.3987 13.4477 27.0898
rtibia 41.7447
rfoot -21.7683 -0.755175
rtoes 14.1557
lfemur -15.343 5.58049 -13.9817
ltibia 38.6507
lfoot -17.9325 2.23017
ltoes -0.324685
782
root 6.1987 17.1291 -9.36361 158.719 -81.1078 -158.702
lowerback 6.22051 2.80128 2.19943
upperback -0.140319 3.91396 0.902772
thorax -3.54435 1.90735 -0.655294
lowerneck -14.7356 14.8116 -2.8434
upperneck 19.5767 20.1017 4.26376
head 7.69257 9.72736 3.86602
rclavicle -5.35585e-014 -7.33018e-015
rhumerus 137.876 142.579 74.6576
rradius 95.6516
rwrist -3.11059
rhand -31.8995 20.019
rfingers 7.12502
rthumb -5.15172 -9.89837
lclavicle -5.35585e-014 -7.33018e-015
lhumerus -43.0008 -38.2001 112.636
lradius 93.4154
lwrist 30.2015
lhand -25.5574 16.6631
lfingers 7.12502
lthumb 0.97326 46.6407
rfemur -17.5875 13.3279 27.2824
rtibia 41.732
rfoot -21.6223 -0.794189
rtoes 14.1833
lfemur -15.728 5.61865 -13.7525
ltibia 38.9147
lfoot -17.8772 2.09011
ltoes -0.496535
783
root 6.23219 17.1274 -9.38834 157.549 -81.2678 -157.437
lowerback 6.40753 2.78748 2.27699
upperback -0.110935 3.90544 0.904813
thorax -3.61408 1.90034 -0.704892
lowerneck -14.7581 14.7707 -2.85361
upperneck 19.458 20.0507 4.23525
head 7.66128 9.70436 3.84881
rclavicle 1.73937e-015 -1.78906e-015
rhumerus 138.089 142.504 74.681
rradius 95.6195
rwrist -2.74352
rhand -32.1505 20.1302
rfingers 7.12502
rthumb -5.39401 -9.78112
lclavicle 1.73937e-015 -1.78906e-015
lhumerus -42.851 -38.254 112.575
lradius 93.5066
lwrist 30.45
lhand -25.7843 16.9714
lfingers 7.12502
lthumb 0.754071 46.9498
rfemur -17.8065 13.1585 27.4648
rtibia 41.7205
rfoot -21.4707 -0.807561
rtoes 14.1831
lfemur -16.1572 5.63991 -13.5275
ltibia 39.2003
lfoot -17.86 1.98393
ltoes -0.823703
784
root 6.26805 17.1256 -9.41353 156.214 -81.4406 -155.974
lowerback 6.58557 2.76748 2.35926
upperback -0.083904 3.88938 0.917137
thorax -3.68182 1.88952 -0.745381
lowerneck -14.7983 14.7322 -2.87238
upperneck 19.3445 20.0077 4.19773
head 7.63457 9.68325 3.83263
rclavicle 1.32425e-014 -7.95139e-016
rhumerus 138.302 142.406 74.709
rradius 95.6046
rwrist -2.49001
rhand -32.3528 20.2586
rfingers 7.12502
rthumb -5.58939 -9.64767
lclavicle 1.32425e-014 -7.95139e-016
lhumerus -42.6861 -38.2885 112.52
lradius 93.6034
lwrist 30.721
lhand -26.1798 17.3654
lfingers 7.12502
lthumb 0.372046 47.3448
rfemur -18.0745 12.9459 27.653
rtibia 41.7146
rfoot -21.3139 -0.792459
rtoes 14.1888
lfemur -16.6442 5.67046 -13.2866
ltibia 39.5084
lfoot -17.9062 1.90258
ltoes -1.3614
785
root 6.30651 17.1234 -9.4395 154.746 -81.6439 -154.351
lowerback 6.75911 2.74196 2.44269
upperback -0.058026 3.86612 0.92504
thorax -3.74809 1.87506 -0.790095
lowerneck -14.8469 14.6885 -2.92318
upperneck 19.2167 19.9617 4.17497
head 7.59965 9.66083 3.82401
rclavicle -4.40681e-014 -1.62506e-014
rhumerus 138.528 142.314 74.7421
rradius 95.5987
rwrist -2.27959
rhand -32.5179 20.3923
rfingers 7.12502
rthumb -5.74873 -9.50974
lclavicle -4.40681e-014 -1.62506e-014
lhumerus -42.5105 -38.328 112.466
lradius 93.6947
lwrist 30.9807
lhand -26.5075 17.6814
lfingers 7.12502
lthumb 0.055559 47.6611
rfemur -18.3908 12.6859 27.8321
rtibia 41.7203
rfoot -21.1551 -0.761757
rtoes 14.1917
lfemur -17.1848 5.69944 -13.0496
ltibia 39.8364
lfoot -18.0334 1.86108
ltoes -2.22228
786
root 6.34765 17.1207 -9.46632 153.105 -81.8749 -152.527
lowerback 6.92931 2.71163 2.52222
upperback -0.0347042 3.83641 0.932489
thorax -3.81559 1.85739 -0.83229
lowerneck -14.9032 14.6392 -2.99659
upperneck 19.0753 19.912 4.15782
head 7.55878 9.63639 3.81917
rclavicle 1.0066e-013 1.44119e-015
rhumerus 138.76 142.228 74.7843
rradius 95.5962
rwrist -2.03188
rhand -32.673 20.5165
rfingers 7.12502
rthumb -5.89849 -9.38144
lclavicle 1.0066e-013 1.44119e-015
lhumerus -42.3312 -38.3723 112.412
lradius 93.7812
lwrist 31.2141
lhand -26.8346 17.9951
lfingers 7.12502
lthumb -0.260327 47.9747
rfemur -18.7571 12.3861 28.0064
rtibia 41.74
rfoot -20.9934 -0.723189
rtoes 14.2039
lfemur -17.778 5.73689 -12.8148
ltibia 40.1851
lfoot -18.2621 1.83937
ltoes -3.41507
787
root 6.39053 17.1174 -9.49323 151.282 -82.1222 -150.513
lowerback 7.10833 2.67975 2.60015
upperback -0.0104173 3.80509 0.941629
thorax -3.88737 1.83883 -0.872019
lowerneck -14.9597 14.5859 -3.07397
upperneck 18.9213 19.8592 4.13243
head 7.51448 9.60986 3.81136
rclavicle 1.85087e-014 7.65321e-015
rhumerus 138.986 142.149 74.8377
rradius 95.5932
rwrist -1.67987
rhand -32.8374 20.6184
rfingers 7.12502
rthumb -6.05724 -9.27501
lclavicle 1.85087e-014 7.65321e-015
lhumerus -42.151 -38.4085 112.371
lradius 93.8469
lwrist 31.4091
lhand -27.007 18.2222
lfingers 7.12502
lthumb -0.426818 48.2015
rfemur -19.1471 12.051 28.1768
rtibia 41.7726
rfoot -20.8356 -0.675475
rtoes 14.2214
lfemur -18.3902 5.77466 -12.5858
ltibia 40.5526
lfoot -18.6004 1.82873
ltoes -4.76424
